# xmcd
#
# Track frame offsets:
#	150
#	12918
#	27691
#
# Disc length: 538 seconds
#
# Revision: 1
# Processed by: cddbd v1.5.2PL0 Copyright (c) Steve Scherf et al.
# Submitted via: audiograbber 1.83.01
#
DISCID=1e021803
DTITLE=The Bosshoss - Rodeo Radio (Maxi CD)
DYEAR=2007
DGENRE=Country
TTITLE0=Rodeo Radio (Rodeo Mix)
TTITLE1=Radar Love
TTITLE2=Rodeo Radio (Album Version)
EXTD=
EXTT0=
EXTT1=
EXTT2=
PLAYORDER=
